<?xml version="1.0" encoding="utf-8"?>
<!DOCTYPE svg PUBLIC "-//W3C//DTD SVG 1.1//EN" "http://www.w3.org/Graphics/SVG/1.1/DTD/svg11.dtd">
<svg version="1.1" id="pandoraeapplogo" xmlns="http://www.w3.org/2000/svg" xmlns:xlink="http://www.w3.org/1999/xlink" x="0px" y="0px" width="600px" height="600px" viewBox="0 0 600 600" enable-background="new 0 0 600 600" xml:space="preserve">
	<g>
		<path id="logotop" d="M38.6,153.5C125.3,106.2,211.9,59,298.5,11.8c15.2,8.3,30.4,16.6,45.6,24.9c17.2,9.4,34.5,18.8,51.7,28.2
			c17.9,9.8,35.8,19.6,53.7,29.3c18.4,10.1,36.9,20.1,55.3,30.1c17.5,9.6,35.1,19.1,52.6,28.7c0.5,0.3,0.7,1,1,1.6
			c0.1,0.3,0,0.7,0,1.1c0,61.4,0,122.8,0,184.3c0,0.7,0,1.4,0,2.4c-2.6-1.4-5-2.7-7.4-3.9c-12.7-6.8-25.4-13.6-38.1-20.4
			c-1.3-0.7-1.7-1.4-1.7-2.9c0-44.5,0-88.9,0-133.4c0-0.7,0-1.4,0-2.4c-1.7,0.9-3.3,1.7-4.8,2.5c-25.8,14.1-51.6,28.2-77.4,42.2
			c-27.4,15-54.8,29.9-82.2,44.8c-15.5,8.5-31.1,16.9-46.6,25.5c-1.3,0.7-2.3,0.7-3.5,0c-25.3-13.9-50.7-27.7-76.1-41.5
			c-24.2-13.2-48.3-26.4-72.5-39.6c-20.2-11-40.5-22.1-60.7-33.1c-16-8.7-31.9-17.4-47.9-26.1C39.2,154,39,153.8,38.6,153.5z"/>
		<path id="logomid" d="M299.2,586.9c-22.2-12.1-44.3-24.2-66.5-36.2c-23.4-12.8-46.8-25.6-70.3-38.3c-23.4-12.8-46.9-25.5-70.3-38.3
			c-17.3-9.4-34.6-18.9-51.9-28.3c-0.8-0.4-1.2-0.9-1.1-1.7c0-0.3,0-0.5,0-0.8c0-61.6,0-123.3,0-184.9c0-0.6,0-1.3,0-2.2
			c3.2,1.7,6.1,3.3,9,4.9c12.2,6.7,24.4,13.4,36.6,20.1c1.2,0.7,1.6,1.4,1.6,2.8c0,44.4,0,88.8,0,133.2c0,0.6,0,1.3,0,2.2
			c2.6-1.4,4.9-2.6,7.3-3.9c12.3-6.7,24.7-13.5,37-20.2c1.2-0.6,2-0.7,3.3,0c23.1,12.6,46.3,25.1,69.5,37.7
			c24.4,13.2,48.7,26.4,73.1,39.6c6.9,3.7,13.7,7.4,20.6,11.1c0.9,0.5,1.5,0.5,2.4,0c16.4-8.9,32.8-17.8,49.2-26.8
			c16.4-8.9,32.8-17.8,49.2-26.8c17.9-9.7,35.9-19.5,53.8-29.2c4-2.2,8.1-4.4,12.1-6.6c0.5-0.3,1.4-0.2,1.9,0
			c26.3,14.3,52.7,28.7,79,43c4.7,2.6,9.4,5.1,14.4,7.8C472.5,492.4,385.9,539.6,299.2,586.9z"/>
		<path id="logobot" d="M463.9,252.4c0,0.9,0,1.6,0,2.2c0,30.1,0,60.1,0,90.2c0,1.6-0.5,2.4-1.9,3.1c-15.7,8.5-31.4,17.1-47,25.6
			c-17,9.3-34,18.5-51,27.8c-16.3,8.9-32.7,17.8-49,26.8c-5.1,2.8-10.2,5.5-15.2,8.3c-0.9,0.5-1.6,0.5-2.5,0
			c-13.9-7.6-27.8-15.2-41.7-22.8c-17.1-9.3-34.2-18.7-51.3-28c-17-9.3-34-18.6-51-27.8c-6.1-3.3-12.2-6.7-18.4-10
			c-1.3-0.7-1.8-1.5-1.8-3c0.1-30.1,0-60.2,0-90.3c0-0.6,0-1.2,0-2.1c0.8,0.4,1.4,0.7,2,1c22.6,12.3,45.1,24.6,67.7,36.9
			c19.6,10.7,39.1,21.3,58.7,32c12,6.5,23.9,13,35.9,19.6c0.9,0.5,1.6,0.5,2.5,0c29.4-16.1,58.8-32.1,88.2-48.2
			c24.6-13.4,49.2-26.9,73.8-40.3C462.4,253.2,463,252.9,463.9,252.4z"/>
	</g>
</svg>
